<svg width="9" height="13" viewBox="0 0 9 13" fill="none" xmlns="http://www.w3.org/2000/svg">
<path d="M5.66987 12.6H3.63987C3.46253 12.6 3.33187 12.558 3.24787 12.474C3.1732 12.3993 3.13587 12.2733 3.13587 12.096V11.34H1.21787C1.04053 11.34 0.909867 11.3027 0.825867 11.228C0.7512 11.144 0.713867 11.0133 0.713867 10.836V9.198C0.713867 9.02067 0.7512 8.89467 0.825867 8.82C0.909867 8.736 1.04053 8.694 1.21787 8.694H4.98387C5.1052 8.694 5.19387 8.65667 5.24987 8.582C5.3152 8.498 5.34787 8.4 5.34787 8.288C5.34787 8.12933 5.3152 8.01267 5.24987 7.938C5.19387 7.86333 5.1052 7.82133 4.98387 7.812L2.88387 7.518C2.23053 7.42467 1.7032 7.21 1.30187 6.874C0.909867 6.538 0.713867 5.978 0.713867 5.194V3.724C0.713867 2.996 0.928534 2.42667 1.35787 2.016C1.7872 1.596 2.37987 1.35333 3.13587 1.288V0.504001C3.13587 0.326667 3.1732 0.200667 3.24787 0.126C3.33187 0.0420004 3.46253 0 3.63987 0H5.66987C5.8472 0 5.9732 0.0420004 6.04787 0.126C6.13187 0.200667 6.17387 0.326667 6.17387 0.504001V1.26H7.53187C7.7092 1.26 7.8352 1.302 7.90987 1.386C7.99387 1.46067 8.03587 1.58667 8.03587 1.764V3.43C8.03587 3.60733 7.99387 3.738 7.90987 3.822C7.8352 3.89667 7.7092 3.934 7.53187 3.934H4.26987C4.14853 3.934 4.0552 3.976 3.98987 4.06C3.92453 4.13467 3.89187 4.23267 3.89187 4.354C3.89187 4.47533 3.92453 4.578 3.98987 4.662C4.0552 4.746 4.14853 4.79267 4.26987 4.802L6.35587 5.082C7.0092 5.17533 7.53653 5.39 7.93787 5.726C8.3392 6.062 8.53987 6.622 8.53987 7.406V8.876C8.53987 9.58533 8.32987 10.15 7.90987 10.57C7.48987 10.99 6.9112 11.2373 6.17387 11.312V12.096C6.17387 12.2733 6.13187 12.3993 6.04787 12.474C5.9732 12.558 5.8472 12.6 5.66987 12.6Z" fill="#FF3E7D"/>
</svg>
