<svg width="11" height="11" viewBox="0 0 11 11" fill="none" xmlns="http://www.w3.org/2000/svg">
<path fill-rule="evenodd" clip-rule="evenodd" d="M10.5303 4.51873C10.5006 4.48206 10.4692 4.4454 10.436 4.41222L6.39571 0.371905C5.89984 -0.123968 5.09667 -0.123968 4.60254 0.371905L0.562222 4.41048C0.529048 4.44365 0.497619 4.48032 0.467937 4.51698C0.179841 4.78413 0 5.16476 0 5.58905V9.53508C0 10.3435 0.656508 11 1.46492 11H3.14286V7.07143C3.14286 6.63667 3.49381 6.28571 3.92857 6.28571C4.36333 6.28571 4.71429 6.63667 4.71429 7.07143V11H9.53508C10.3435 11 11 10.3435 11 9.53508V5.58905C11 5.16476 10.8184 4.78413 10.5321 4.51698L10.5303 4.51873Z" fill="#FF3E7D"/>
</svg>
