<svg width="9" height="13" viewBox="0 0 9 13" fill="none" xmlns="http://www.w3.org/2000/svg">
<path d="M4.50105 3.90087e-07C3.65386 -0.00036432 2.82379 0.255015 2.10635 0.736753C1.38891 1.21849 0.813268 1.90701 0.445653 2.72308C0.0780372 3.53915 -0.0666087 4.4496 0.0283615 5.34968C0.123332 6.24976 0.454058 7.10289 0.982482 7.81088L0.994751 7.83248L4.27591 12.8736C4.30106 12.9126 4.33469 12.9445 4.37391 12.9665C4.41313 12.9885 4.45676 13 4.50105 13C4.54535 13 4.58898 12.9885 4.6282 12.9665C4.66742 12.9445 4.70105 12.9126 4.7262 12.8736L8.00447 7.83325C8.00908 7.82641 8.01319 7.81919 8.01674 7.81165C8.54531 7.10395 8.87625 6.25107 8.97148 5.35116C9.06671 4.45125 8.92236 3.54088 8.55505 2.7248C8.18773 1.90873 7.61237 1.22012 6.89518 0.73821C6.17799 0.256304 5.34812 0.000684901 4.50105 0.00077031V3.90087e-07ZM4.50105 6.7647C4.13951 6.76485 3.78605 6.65036 3.48537 6.43572C3.18468 6.22108 2.95029 5.91591 2.81184 5.55883C2.67338 5.20175 2.63708 4.80879 2.70753 4.42965C2.77797 4.05051 2.952 3.70222 3.2076 3.42883C3.4632 3.15545 3.78889 2.96925 4.14347 2.89378C4.49806 2.81831 4.86561 2.85697 5.19965 3.00486C5.53369 3.15275 5.8192 3.40323 6.02007 3.72462C6.22095 4.04602 6.32817 4.42388 6.32817 4.81043C6.32817 5.3286 6.13569 5.82556 5.79306 6.19203C5.45043 6.55851 4.9857 6.76449 4.50105 6.7647Z" fill="#FF3E7D"/>
</svg>
