<svg width="11" height="12" viewBox="0 0 11 12" fill="none" xmlns="http://www.w3.org/2000/svg">
<path d="M7.93896 1.02981L0.894251 9.14239C0.40037 9.71114 0.46106 10.5726 1.02981 11.0664C1.59855 11.5603 2.45998 11.4996 2.95386 10.9309L9.99857 2.81831C10.4924 2.24956 10.4318 1.38813 9.86301 0.894251C9.29427 0.40037 8.43284 0.461061 7.93896 1.02981Z" fill="#FF3E7D"/>
<path d="M8.37249 11.9607C9.69363 11.9607 10.7646 10.8897 10.7646 9.56856C10.7646 8.24742 9.69363 7.17642 8.37249 7.17642C7.05134 7.17642 5.98035 8.24742 5.98035 9.56856C5.98035 10.8897 7.05134 11.9607 8.37249 11.9607Z" fill="#FF3E7D"/>
<path d="M2.39214 4.78428C3.71328 4.78428 4.78428 3.71328 4.78428 2.39214C4.78428 1.071 3.71328 3.8147e-06 2.39214 3.8147e-06C1.071 3.8147e-06 0 1.071 0 2.39214C0 3.71328 1.071 4.78428 2.39214 4.78428Z" fill="#FF3E7D"/>
</svg>
