<svg width="96" height="96" viewBox="0 0 96 96" fill="none" xmlns="http://www.w3.org/2000/svg">
<path d="M44.8561 2.45666C46.3889 0.283815 49.6111 0.283815 51.1439 2.45666C52.4389 4.29238 55.0247 4.63279 56.7507 3.1948C58.7936 1.49272 61.9061 2.32669 62.8243 4.82222C63.6001 6.93056 66.0096 7.92861 68.0489 6.98634C70.4628 5.87102 73.2534 7.48213 73.4944 10.1303C73.6981 12.3676 75.7671 13.9552 77.9809 13.5729C80.6012 13.1203 82.8797 15.3988 82.4271 18.0191C82.0448 20.2329 83.6324 22.3019 85.8697 22.5056C88.5179 22.7466 90.129 25.5372 89.0137 27.9511C88.0714 29.9904 89.0694 32.3999 91.1778 33.1757C93.6733 34.0939 94.5073 37.2064 92.8052 39.2493C91.3672 40.9753 91.7076 43.5611 93.5433 44.8561C95.7162 46.3889 95.7162 49.6111 93.5433 51.1439C91.7076 52.4389 91.3672 55.0247 92.8052 56.7507C94.5073 58.7936 93.6733 61.9061 91.1778 62.8243C89.0694 63.6001 88.0714 66.0096 89.0137 68.0489C90.129 70.4628 88.5179 73.2534 85.8697 73.4944C83.6324 73.6981 82.0448 75.7671 82.4271 77.9809C82.8797 80.6012 80.6012 82.8797 77.9809 82.4271C75.7671 82.0448 73.6981 83.6324 73.4944 85.8697C73.2534 88.5179 70.4628 90.129 68.0489 89.0137C66.0096 88.0714 63.6001 89.0694 62.8243 91.1778C61.9061 93.6733 58.7936 94.5073 56.7507 92.8052C55.0247 91.3672 52.4389 91.7076 51.1439 93.5433C49.6111 95.7162 46.3889 95.7162 44.8561 93.5433C43.5611 91.7076 40.9753 91.3672 39.2493 92.8052C37.2064 94.5073 34.0939 93.6733 33.1757 91.1778C32.3999 89.0694 29.9904 88.0714 27.9511 89.0137C25.5372 90.129 22.7466 88.5179 22.5056 85.8697C22.3019 83.6324 20.2329 82.0448 18.0191 82.4271C15.3988 82.8797 13.1203 80.6012 13.5729 77.9809C13.9552 75.7671 12.3676 73.6981 10.1303 73.4944C7.48213 73.2534 5.87102 70.4628 6.98634 68.0489C7.92861 66.0096 6.93056 63.6001 4.82222 62.8243C2.32669 61.9061 1.49272 58.7936 3.1948 56.7507C4.63279 55.0247 4.29238 52.4389 2.45666 51.1439C0.283815 49.6111 0.283815 46.3889 2.45666 44.8561C4.29238 43.5611 4.63279 40.9753 3.1948 39.2493C1.49272 37.2064 2.32669 34.0939 4.82222 33.1757C6.93056 32.3999 7.92861 29.9904 6.98634 27.9511C5.87102 25.5372 7.48213 22.7466 10.1303 22.5056C12.3676 22.3019 13.9552 20.2329 13.5729 18.0191C13.1203 15.3988 15.3988 13.1203 18.0191 13.5729C20.2329 13.9552 22.3019 12.3676 22.5056 10.1303C22.7466 7.48213 25.5372 5.87102 27.9511 6.98634C29.9904 7.92861 32.3999 6.93056 33.1757 4.82222C34.0939 2.32669 37.2064 1.49272 39.2493 3.1948C40.9753 4.63279 43.5611 4.29238 44.8561 2.45666Z" fill="#071D49"/>
</svg>
